<svg xmlns="http://www.w3.org/2000/svg" version="1.1" xmlns:xlink="http://www.w3.org/1999/xlink" width="512" height="512"><svg width="512" height="512" viewBox="0 0 512 512" fill="none" xmlns="http://www.w3.org/2000/svg">
<path d="M103.85 289.718H119.447C127.739 289.718 134.465 282.992 134.465 274.7V259.102C134.465 250.81 127.739 244.084 119.447 244.084H103.85C95.5579 244.084 88.8318 250.81 88.8318 259.102V274.7C88.8028 282.992 95.5289 289.718 103.85 289.718Z" fill="#6081FD"></path>
<path d="M30.5866 393.335H15.0179C6.72618 393.335 0 400.062 0 408.353V423.922C0 432.214 6.72618 438.94 15.0179 438.94H30.5866C38.8784 438.94 45.6046 432.214 45.6046 423.922V408.353C45.6046 400.091 38.8784 393.335 30.5866 393.335Z" fill="#6081FD"></path>
<path d="M187.057 244.287C178.765 244.287 172.039 251.013 172.039 259.305V274.671C172.039 282.963 178.765 289.689 187.057 289.689H223.732H228.689C233.966 289.689 238.228 293.951 238.228 299.227V309.113C238.228 314.39 233.966 318.652 228.689 318.652H223.732H119.186H87.0632H60.6514C52.3597 318.652 45.6335 325.378 45.6335 333.67V349.268C45.6335 357.559 52.3597 364.285 60.6514 364.285H87.0632H119.186H187.463H192.42C197.697 364.285 201.959 368.547 201.959 373.824V383.739C201.959 388.987 197.697 393.277 192.42 393.277H187.463H107.706C99.4138 393.277 92.6876 400.004 92.6876 408.295V423.864C92.6876 432.156 99.4138 438.882 107.706 438.882H201.959V438.911H202.104H288.123V244.171H187.057V244.287Z" fill="#6081FD"></path>
<path d="M53.4034 147.715H37.8347C29.543 147.715 22.8168 154.441 22.8168 162.732V178.33C22.8168 186.622 29.543 193.348 37.8347 193.348H53.4034C61.6952 193.348 68.4213 186.622 68.4213 178.33V162.732C68.4503 154.441 61.6952 147.715 53.4034 147.715Z" fill="#04E4C0"></path>
<path d="M511.623 243.968H511.449C510.521 225.964 507.622 209.033 502.867 193.377H503.099C502.751 192.188 502.172 191.174 501.795 190.014C499.533 182.998 496.924 176.243 493.938 169.778C493.358 168.531 492.894 167.197 492.285 165.951C488.835 158.935 484.892 152.353 480.631 146.062C479.384 144.207 478.079 142.409 476.746 140.583C472.31 134.552 467.613 128.754 462.424 123.448C461.38 122.376 460.22 121.477 459.147 120.433C454.625 116.055 449.841 112.025 444.825 108.198C442.854 106.72 440.94 105.212 438.911 103.821C433.055 99.8197 426.966 96.1377 420.53 92.8616C418.269 91.7019 415.862 90.7162 413.514 89.6435C408.411 87.3242 403.135 85.2657 397.713 83.4392C395.22 82.5984 392.814 81.6417 390.233 80.9169C383.275 78.9164 376.056 77.3509 368.663 76.1332C365.416 75.5824 362.14 75.1765 358.806 74.7996C352.747 74.1038 346.571 73.6689 340.251 73.4949C338.164 73.4369 336.221 73.0601 334.105 73.0601H249.274H60.6514C52.3597 73.0601 45.6335 79.7862 45.6335 88.0779V103.647C45.6335 111.938 52.3597 118.665 60.6514 118.665H187.492H192.449C197.726 118.665 201.988 122.926 201.988 128.203V138.118C201.988 143.366 197.726 147.657 192.449 147.657H187.492H121.071C112.779 147.657 106.053 154.383 106.053 162.675V178.272C106.053 186.564 112.779 193.29 121.071 193.29H158.152H435.461C443.753 193.29 450.479 200.016 450.479 208.308V229.153C450.479 237.445 443.753 244.171 435.461 244.171H346.368V438.128C359.821 437.345 372.867 435.664 385.102 432.533V432.678C385.537 432.562 385.942 432.359 386.377 432.243C394.872 429.981 403.048 427.14 410.847 423.806C412.151 423.255 413.398 422.646 414.674 422.067C422.588 418.443 430.213 414.413 437.316 409.658C437.374 409.629 437.432 409.571 437.49 409.513C444.593 404.787 451.146 399.395 457.35 393.625C458.191 392.843 459.06 392.118 459.872 391.306C465.787 385.537 471.237 379.274 476.253 372.577C477.035 371.504 477.818 370.403 478.572 369.301C488.487 355.327 496.373 339.497 501.998 322.015C502.433 320.623 502.925 319.29 503.36 317.869C505.883 309.345 507.825 300.474 509.246 291.225C509.507 289.544 509.681 287.804 509.913 286.094C511.159 276.468 512 266.582 512 256.29C512 256.261 512 256.232 512 256.232V256.203C511.971 252.144 511.826 248.027 511.623 243.968Z" fill="#04E4C0"></path>
</svg><style>@media (prefers-color-scheme: light) { :root { filter: none; } }
@media (prefers-color-scheme: dark) { :root { filter: none; } }
</style></svg>